<svg width="708" height="147" viewBox="0 0 708 147" fill="none" xmlns="http://www.w3.org/2000/svg">
<mask id="path-1-outside-1_67_52" maskUnits="userSpaceOnUse" x="-0.606812" y="0.446777" width="708" height="146" fill="black">
<rect fill="white" x="-0.606812" y="0.446777" width="708" height="146"/>
<path d="M77.2582 5.10578L83.4202 62.4598H62.9592L61.6952 21.5378L53.7952 62.4598H33.0972L25.0392 21.8538L23.8542 62.4598H3.39319L9.55519 5.10578H36.4152L43.2882 42.4728L49.2922 5.10578H77.2582Z"/>
<path d="M141.862 31.4918C144.18 32.3344 146.155 33.5194 147.787 35.0468C149.42 36.5741 150.631 38.2594 151.421 40.1028C152.211 41.8934 152.606 43.5788 152.606 45.1588C152.606 51.3734 149.841 55.9554 144.311 58.9048C138.834 61.8014 131.145 63.2498 121.243 63.2498C111.289 63.2498 103.547 61.8014 98.0173 58.9048C92.4873 55.9554 89.7223 51.3734 89.7223 45.1588C89.7223 42.6308 90.6176 40.0501 92.4083 37.4168C94.2516 34.7308 96.806 32.7558 100.071 31.4918C97.1746 30.1224 94.989 28.6214 93.5143 26.9888C92.0923 25.3034 91.3813 23.0651 91.3813 20.2738C91.3813 17.0084 92.5136 14.1118 94.7783 11.5838C97.043 9.00311 100.414 7.00178 104.89 5.57978C109.42 4.15778 114.871 3.44678 121.243 3.44678C127.563 3.44678 132.962 4.15778 137.438 5.57978C141.915 7.00178 145.286 9.00311 147.55 11.5838C149.815 14.1118 150.947 17.0084 150.947 20.2738C150.947 23.1178 150.184 25.3561 148.656 26.9888C147.182 28.6214 144.917 30.1224 141.862 31.4918ZM121.401 26.8308C124.456 26.8308 126.984 26.3041 128.985 25.2508C131.039 24.1974 132.066 22.8018 132.066 21.0638C132.066 19.3258 131.039 17.9564 128.985 16.9558C126.931 15.9024 124.403 15.3758 121.401 15.3758C118.347 15.3758 115.792 15.9024 113.738 16.9558C111.684 17.9564 110.657 19.3258 110.657 21.0638C110.657 22.8544 111.684 24.2764 113.738 25.3298C115.792 26.3304 118.347 26.8308 121.401 26.8308ZM121.401 48.9508C124.456 48.9508 126.984 48.4241 128.985 47.3708C131.039 46.3174 132.066 44.9218 132.066 43.1838C132.066 41.4458 131.039 40.0764 128.985 39.0758C126.931 38.0224 124.403 37.4958 121.401 37.4958C118.347 37.4958 115.792 38.0224 113.738 39.0758C111.684 40.0764 110.657 41.4458 110.657 43.1838C110.657 44.9744 111.684 46.3964 113.738 47.4498C115.792 48.4504 118.347 48.9508 121.401 48.9508Z"/>
<path d="M203.006 33.3878C204.902 33.0191 206.772 32.8348 208.615 32.8348C211.828 32.8348 214.435 33.3878 216.436 34.4938C218.49 35.5471 219.965 36.9164 220.86 38.6018C221.756 40.2344 222.203 41.9461 222.203 43.7368C222.203 47.8974 220.834 51.4524 218.095 54.4018C215.357 57.2984 211.644 59.5104 206.956 61.0378C202.269 62.5124 197.055 63.2498 191.314 63.2498C174.672 63.2498 163.901 57.4564 159.003 45.8698L163.427 44.7638C166.693 43.9738 169.458 43.2364 171.722 42.5518C174.04 41.8144 176.067 40.9981 177.805 40.1028C178.859 42.7361 180.36 44.6321 182.308 45.7908C184.31 46.8968 187.048 47.4498 190.524 47.4498C194.211 47.4498 197.213 47.0284 199.53 46.1858C201.848 45.3431 203.006 44.0791 203.006 42.3938C203.006 41.4984 202.559 40.8138 201.663 40.3398C200.768 39.8658 199.346 39.5498 197.397 39.3918C195.449 39.1811 192.71 39.0758 189.181 39.0758H183.177V25.2508H186.811C190.814 25.2508 194.079 25.0928 196.607 24.7768C199.135 24.4081 200.399 23.6444 200.399 22.4858C200.399 21.1691 199.715 20.1158 198.345 19.3258C197.029 18.4831 194.948 18.0618 192.104 18.0618C188.418 18.0618 185.416 18.8254 183.098 20.3528C180.834 21.8801 179.069 24.0921 177.805 26.9888C172.17 24.7241 166.166 23.1178 159.793 22.1698C162.321 16.4818 166.192 12.0841 171.406 8.97678C176.673 5.86944 183.441 4.31578 191.709 4.31578C197.081 4.31578 201.9 5.02678 206.166 6.44878C210.485 7.81811 213.856 9.74044 216.278 12.2158C218.754 14.6911 219.991 17.4561 219.991 20.5108C219.991 22.3014 219.57 23.9078 218.727 25.3298C217.885 26.6991 216.226 28.0684 213.75 29.4378C211.275 30.7544 207.694 32.0711 203.006 33.3878Z"/>
<path d="M318.193 5.10578L324.355 62.4598H303.894L302.63 21.5378L294.73 62.4598H274.032L265.974 21.8538L264.789 62.4598H244.328L250.49 5.10578H277.35L284.223 42.4728L290.227 5.10578H318.193Z"/>
<path d="M382.797 31.4918C385.114 32.3344 387.089 33.5194 388.722 35.0468C390.355 36.5741 391.566 38.2594 392.356 40.1028C393.146 41.8934 393.541 43.5788 393.541 45.1588C393.541 51.3734 390.776 55.9554 385.246 58.9048C379.769 61.8014 372.079 63.2498 362.178 63.2498C352.224 63.2498 344.482 61.8014 338.952 58.9048C333.422 55.9554 330.657 51.3734 330.657 45.1588C330.657 42.6308 331.552 40.0501 333.343 37.4168C335.186 34.7308 337.741 32.7558 341.006 31.4918C338.109 30.1224 335.924 28.6214 334.449 26.9888C333.027 25.3034 332.316 23.0651 332.316 20.2738C332.316 17.0084 333.448 14.1118 335.713 11.5838C337.978 9.00311 341.348 7.00178 345.825 5.57978C350.354 4.15778 355.805 3.44678 362.178 3.44678C368.498 3.44678 373.896 4.15778 378.373 5.57978C382.85 7.00178 386.22 9.00311 388.485 11.5838C390.75 14.1118 391.882 17.0084 391.882 20.2738C391.882 23.1178 391.118 25.3561 389.591 26.9888C388.116 28.6214 385.852 30.1224 382.797 31.4918ZM362.336 26.8308C365.391 26.8308 367.919 26.3041 369.92 25.2508C371.974 24.1974 373.001 22.8018 373.001 21.0638C373.001 19.3258 371.974 17.9564 369.92 16.9558C367.866 15.9024 365.338 15.3758 362.336 15.3758C359.281 15.3758 356.727 15.9024 354.673 16.9558C352.619 17.9564 351.592 19.3258 351.592 21.0638C351.592 22.8544 352.619 24.2764 354.673 25.3298C356.727 26.3304 359.281 26.8308 362.336 26.8308ZM362.336 48.9508C365.391 48.9508 367.919 48.4241 369.92 47.3708C371.974 46.3174 373.001 44.9218 373.001 43.1838C373.001 41.4458 371.974 40.0764 369.92 39.0758C367.866 38.0224 365.338 37.4958 362.336 37.4958C359.281 37.4958 356.727 38.0224 354.673 39.0758C352.619 40.0764 351.592 41.4458 351.592 43.1838C351.592 44.9744 352.619 46.3964 354.673 47.4498C356.727 48.4504 359.281 48.9508 362.336 48.9508Z"/>
<path d="M443.941 33.3878C445.837 33.0191 447.707 32.8348 449.55 32.8348C452.763 32.8348 455.37 33.3878 457.371 34.4938C459.425 35.5471 460.9 36.9164 461.795 38.6018C462.69 40.2344 463.138 41.9461 463.138 43.7368C463.138 47.8974 461.769 51.4524 459.03 54.4018C456.291 57.2984 452.578 59.5104 447.891 61.0378C443.204 62.5124 437.99 63.2498 432.249 63.2498C415.606 63.2498 404.836 57.4564 399.938 45.8698L404.362 44.7638C407.627 43.9738 410.392 43.2364 412.657 42.5518C414.974 41.8144 417.002 40.9981 418.74 40.1028C419.793 42.7361 421.294 44.6321 423.243 45.7908C425.244 46.8968 427.983 47.4498 431.459 47.4498C435.146 47.4498 438.148 47.0284 440.465 46.1858C442.782 45.3431 443.941 44.0791 443.941 42.3938C443.941 41.4984 443.493 40.8138 442.598 40.3398C441.703 39.8658 440.281 39.5498 438.332 39.3918C436.383 39.1811 433.645 39.0758 430.116 39.0758H424.112V25.2508H427.746C431.749 25.2508 435.014 25.0928 437.542 24.7768C440.07 24.4081 441.334 23.6444 441.334 22.4858C441.334 21.1691 440.649 20.1158 439.28 19.3258C437.963 18.4831 435.883 18.0618 433.039 18.0618C429.352 18.0618 426.35 18.8254 424.033 20.3528C421.768 21.8801 420.004 24.0921 418.74 26.9888C413.105 24.7241 407.101 23.1178 400.728 22.1698C403.256 16.4818 407.127 12.0841 412.341 8.97678C417.608 5.86944 424.375 4.31578 432.644 4.31578C438.016 4.31578 442.835 5.02678 447.101 6.44878C451.42 7.81811 454.79 9.74044 457.213 12.2158C459.688 14.6911 460.926 17.4561 460.926 20.5108C460.926 22.3014 460.505 23.9078 459.662 25.3298C458.819 26.6991 457.16 28.0684 454.685 29.4378C452.21 30.7544 448.628 32.0711 443.941 33.3878Z"/>
<path d="M559.127 5.10578L565.289 62.4598H544.828L543.564 21.5378L535.664 62.4598H514.966L506.908 21.8538L505.723 62.4598H485.262L491.424 5.10578H518.284L525.157 42.4728L531.161 5.10578H559.127Z"/>
<path d="M623.731 31.4918C626.049 32.3344 628.024 33.5194 629.656 35.0468C631.289 36.5741 632.5 38.2594 633.29 40.1028C634.08 41.8934 634.475 43.5788 634.475 45.1588C634.475 51.3734 631.71 55.9554 626.18 58.9048C620.703 61.8014 613.014 63.2498 603.112 63.2498C593.158 63.2498 585.416 61.8014 579.886 58.9048C574.356 55.9554 571.591 51.3734 571.591 45.1588C571.591 42.6308 572.487 40.0501 574.277 37.4168C576.121 34.7308 578.675 32.7558 581.94 31.4918C579.044 30.1224 576.858 28.6214 575.383 26.9888C573.961 25.3034 573.25 23.0651 573.25 20.2738C573.25 17.0084 574.383 14.1118 576.647 11.5838C578.912 9.00311 582.283 7.00178 586.759 5.57978C591.289 4.15778 596.74 3.44678 603.112 3.44678C609.432 3.44678 614.831 4.15778 619.307 5.57978C623.784 7.00178 627.155 9.00311 629.419 11.5838C631.684 14.1118 632.816 17.0084 632.816 20.2738C632.816 23.1178 632.053 25.3561 630.525 26.9888C629.051 28.6214 626.786 30.1224 623.731 31.4918ZM603.27 26.8308C606.325 26.8308 608.853 26.3041 610.854 25.2508C612.908 24.1974 613.935 22.8018 613.935 21.0638C613.935 19.3258 612.908 17.9564 610.854 16.9558C608.8 15.9024 606.272 15.3758 603.27 15.3758C600.216 15.3758 597.661 15.9024 595.607 16.9558C593.553 17.9564 592.526 19.3258 592.526 21.0638C592.526 22.8544 593.553 24.2764 595.607 25.3298C597.661 26.3304 600.216 26.8308 603.27 26.8308ZM603.27 48.9508C606.325 48.9508 608.853 48.4241 610.854 47.3708C612.908 46.3174 613.935 44.9218 613.935 43.1838C613.935 41.4458 612.908 40.0764 610.854 39.0758C608.8 38.0224 606.272 37.4958 603.27 37.4958C600.216 37.4958 597.661 38.0224 595.607 39.0758C593.553 40.0764 592.526 41.4458 592.526 43.1838C592.526 44.9744 593.553 46.3964 595.607 47.4498C597.661 48.4504 600.216 48.9508 603.27 48.9508Z"/>
<path d="M684.876 33.3878C686.772 33.0191 688.641 32.8348 690.485 32.8348C693.697 32.8348 696.304 33.3878 698.306 34.4938C700.36 35.5471 701.834 36.9164 702.73 38.6018C703.625 40.2344 704.073 41.9461 704.073 43.7368C704.073 47.8974 702.703 51.4524 699.965 54.4018C697.226 57.2984 693.513 59.5104 688.826 61.0378C684.138 62.5124 678.924 63.2498 673.184 63.2498C656.541 63.2498 645.771 57.4564 640.873 45.8698L645.297 44.7638C648.562 43.9738 651.327 43.2364 653.592 42.5518C655.909 41.8144 657.937 40.9981 659.675 40.1028C660.728 42.7361 662.229 44.6321 664.178 45.7908C666.179 46.8968 668.918 47.4498 672.394 47.4498C676.08 47.4498 679.082 47.0284 681.4 46.1858C683.717 45.3431 684.876 44.0791 684.876 42.3938C684.876 41.4984 684.428 40.8138 683.533 40.3398C682.637 39.8658 681.215 39.5498 679.267 39.3918C677.318 39.1811 674.579 39.0758 671.051 39.0758H665.047V25.2508H668.681C672.683 25.2508 675.949 25.0928 678.477 24.7768C681.005 24.4081 682.269 23.6444 682.269 22.4858C682.269 21.1691 681.584 20.1158 680.215 19.3258C678.898 18.4831 676.818 18.0618 673.974 18.0618C670.287 18.0618 667.285 18.8254 664.968 20.3528C662.703 21.8801 660.939 24.0921 659.675 26.9888C654.039 24.7241 648.035 23.1178 641.663 22.1698C644.191 16.4818 648.062 12.0841 653.276 8.97678C658.542 5.86944 665.31 4.31578 673.579 4.31578C678.951 4.31578 683.77 5.02678 688.036 6.44878C692.354 7.81811 695.725 9.74044 698.148 12.2158C700.623 14.6911 701.861 17.4561 701.861 20.5108C701.861 22.3014 701.439 23.9078 700.597 25.3298C699.754 26.6991 698.095 28.0684 695.62 29.4378C693.144 30.7544 689.563 32.0711 684.876 33.3878Z"/>
<path d="M77.2582 85.1058L83.4202 142.46H62.9592L61.6952 101.538L53.7952 142.46H33.0972L25.0392 101.854L23.8542 142.46H3.39319L9.55519 85.1058H36.4152L43.2882 122.473L49.2922 85.1058H77.2582Z"/>
<path d="M141.862 111.492C144.18 112.334 146.155 113.519 147.787 115.047C149.42 116.574 150.631 118.259 151.421 120.103C152.211 121.893 152.606 123.579 152.606 125.159C152.606 131.373 149.841 135.955 144.311 138.905C138.834 141.801 131.145 143.25 121.243 143.25C111.289 143.25 103.547 141.801 98.0173 138.905C92.4873 135.955 89.7223 131.373 89.7223 125.159C89.7223 122.631 90.6176 120.05 92.4083 117.417C94.2516 114.731 96.806 112.756 100.071 111.492C97.1746 110.122 94.989 108.621 93.5143 106.989C92.0923 105.303 91.3813 103.065 91.3813 100.274C91.3813 97.0084 92.5136 94.1118 94.7783 91.5838C97.043 89.0031 100.414 87.0018 104.89 85.5798C109.42 84.1578 114.871 83.4468 121.243 83.4468C127.563 83.4468 132.962 84.1578 137.438 85.5798C141.915 87.0018 145.286 89.0031 147.55 91.5838C149.815 94.1118 150.947 97.0084 150.947 100.274C150.947 103.118 150.184 105.356 148.656 106.989C147.182 108.621 144.917 110.122 141.862 111.492ZM121.401 106.831C124.456 106.831 126.984 106.304 128.985 105.251C131.039 104.197 132.066 102.802 132.066 101.064C132.066 99.3258 131.039 97.9564 128.985 96.9558C126.931 95.9024 124.403 95.3758 121.401 95.3758C118.347 95.3758 115.792 95.9024 113.738 96.9558C111.684 97.9564 110.657 99.3258 110.657 101.064C110.657 102.854 111.684 104.276 113.738 105.33C115.792 106.33 118.347 106.831 121.401 106.831ZM121.401 128.951C124.456 128.951 126.984 128.424 128.985 127.371C131.039 126.317 132.066 124.922 132.066 123.184C132.066 121.446 131.039 120.076 128.985 119.076C126.931 118.022 124.403 117.496 121.401 117.496C118.347 117.496 115.792 118.022 113.738 119.076C111.684 120.076 110.657 121.446 110.657 123.184C110.657 124.974 111.684 126.396 113.738 127.45C115.792 128.45 118.347 128.951 121.401 128.951Z"/>
<path d="M203.006 113.388C204.902 113.019 206.772 112.835 208.615 112.835C211.828 112.835 214.435 113.388 216.436 114.494C218.49 115.547 219.965 116.916 220.86 118.602C221.756 120.234 222.203 121.946 222.203 123.737C222.203 127.897 220.834 131.452 218.095 134.402C215.357 137.298 211.644 139.51 206.956 141.038C202.269 142.512 197.055 143.25 191.314 143.25C174.672 143.25 163.901 137.456 159.003 125.87L163.427 124.764C166.693 123.974 169.458 123.236 171.722 122.552C174.04 121.814 176.067 120.998 177.805 120.103C178.859 122.736 180.36 124.632 182.308 125.791C184.31 126.897 187.048 127.45 190.524 127.45C194.211 127.45 197.213 127.028 199.53 126.186C201.848 125.343 203.006 124.079 203.006 122.394C203.006 121.498 202.559 120.814 201.663 120.34C200.768 119.866 199.346 119.55 197.397 119.392C195.449 119.181 192.71 119.076 189.181 119.076H183.177V105.251H186.811C190.814 105.251 194.079 105.093 196.607 104.777C199.135 104.408 200.399 103.644 200.399 102.486C200.399 101.169 199.715 100.116 198.345 99.3258C197.029 98.4831 194.948 98.0618 192.104 98.0618C188.418 98.0618 185.416 98.8254 183.098 100.353C180.834 101.88 179.069 104.092 177.805 106.989C172.17 104.724 166.166 103.118 159.793 102.17C162.321 96.4818 166.192 92.0841 171.406 88.9768C176.673 85.8694 183.441 84.3158 191.709 84.3158C197.081 84.3158 201.9 85.0268 206.166 86.4488C210.485 87.8181 213.856 89.7404 216.278 92.2158C218.754 94.6911 219.991 97.4561 219.991 100.511C219.991 102.301 219.57 103.908 218.727 105.33C217.885 106.699 216.226 108.068 213.75 109.438C211.275 110.754 207.694 112.071 203.006 113.388Z"/>
<path d="M318.193 85.1058L324.355 142.46H303.894L302.63 101.538L294.73 142.46H274.032L265.974 101.854L264.789 142.46H244.328L250.49 85.1058H277.35L284.223 122.473L290.227 85.1058H318.193Z"/>
<path d="M382.797 111.492C385.114 112.334 387.089 113.519 388.722 115.047C390.355 116.574 391.566 118.259 392.356 120.103C393.146 121.893 393.541 123.579 393.541 125.159C393.541 131.373 390.776 135.955 385.246 138.905C379.769 141.801 372.079 143.25 362.178 143.25C352.224 143.25 344.482 141.801 338.952 138.905C333.422 135.955 330.657 131.373 330.657 125.159C330.657 122.631 331.552 120.05 333.343 117.417C335.186 114.731 337.741 112.756 341.006 111.492C338.109 110.122 335.924 108.621 334.449 106.989C333.027 105.303 332.316 103.065 332.316 100.274C332.316 97.0084 333.448 94.1118 335.713 91.5838C337.978 89.0031 341.348 87.0018 345.825 85.5798C350.354 84.1578 355.805 83.4468 362.178 83.4468C368.498 83.4468 373.896 84.1578 378.373 85.5798C382.85 87.0018 386.22 89.0031 388.485 91.5838C390.75 94.1118 391.882 97.0084 391.882 100.274C391.882 103.118 391.118 105.356 389.591 106.989C388.116 108.621 385.852 110.122 382.797 111.492ZM362.336 106.831C365.391 106.831 367.919 106.304 369.92 105.251C371.974 104.197 373.001 102.802 373.001 101.064C373.001 99.3258 371.974 97.9564 369.92 96.9558C367.866 95.9024 365.338 95.3758 362.336 95.3758C359.281 95.3758 356.727 95.9024 354.673 96.9558C352.619 97.9564 351.592 99.3258 351.592 101.064C351.592 102.854 352.619 104.276 354.673 105.33C356.727 106.33 359.281 106.831 362.336 106.831ZM362.336 128.951C365.391 128.951 367.919 128.424 369.92 127.371C371.974 126.317 373.001 124.922 373.001 123.184C373.001 121.446 371.974 120.076 369.92 119.076C367.866 118.022 365.338 117.496 362.336 117.496C359.281 117.496 356.727 118.022 354.673 119.076C352.619 120.076 351.592 121.446 351.592 123.184C351.592 124.974 352.619 126.396 354.673 127.45C356.727 128.45 359.281 128.951 362.336 128.951Z"/>
<path d="M443.941 113.388C445.837 113.019 447.707 112.835 449.55 112.835C452.763 112.835 455.37 113.388 457.371 114.494C459.425 115.547 460.9 116.916 461.795 118.602C462.69 120.234 463.138 121.946 463.138 123.737C463.138 127.897 461.769 131.452 459.03 134.402C456.291 137.298 452.578 139.51 447.891 141.038C443.204 142.512 437.99 143.25 432.249 143.25C415.606 143.25 404.836 137.456 399.938 125.87L404.362 124.764C407.627 123.974 410.392 123.236 412.657 122.552C414.974 121.814 417.002 120.998 418.74 120.103C419.793 122.736 421.294 124.632 423.243 125.791C425.244 126.897 427.983 127.45 431.459 127.45C435.146 127.45 438.148 127.028 440.465 126.186C442.782 125.343 443.941 124.079 443.941 122.394C443.941 121.498 443.493 120.814 442.598 120.34C441.703 119.866 440.281 119.55 438.332 119.392C436.383 119.181 433.645 119.076 430.116 119.076H424.112V105.251H427.746C431.749 105.251 435.014 105.093 437.542 104.777C440.07 104.408 441.334 103.644 441.334 102.486C441.334 101.169 440.649 100.116 439.28 99.3258C437.963 98.4831 435.883 98.0618 433.039 98.0618C429.352 98.0618 426.35 98.8254 424.033 100.353C421.768 101.88 420.004 104.092 418.74 106.989C413.105 104.724 407.101 103.118 400.728 102.17C403.256 96.4818 407.127 92.0841 412.341 88.9768C417.608 85.8694 424.375 84.3158 432.644 84.3158C438.016 84.3158 442.835 85.0268 447.101 86.4488C451.42 87.8181 454.79 89.7404 457.213 92.2158C459.688 94.6911 460.926 97.4561 460.926 100.511C460.926 102.301 460.505 103.908 459.662 105.33C458.819 106.699 457.16 108.068 454.685 109.438C452.21 110.754 448.628 112.071 443.941 113.388Z"/>
<path d="M559.127 85.1058L565.289 142.46H544.828L543.564 101.538L535.664 142.46H514.966L506.908 101.854L505.723 142.46H485.262L491.424 85.1058H518.284L525.157 122.473L531.161 85.1058H559.127Z"/>
<path d="M623.731 111.492C626.049 112.334 628.024 113.519 629.656 115.047C631.289 116.574 632.5 118.259 633.29 120.103C634.08 121.893 634.475 123.579 634.475 125.159C634.475 131.373 631.71 135.955 626.18 138.905C620.703 141.801 613.014 143.25 603.112 143.25C593.158 143.25 585.416 141.801 579.886 138.905C574.356 135.955 571.591 131.373 571.591 125.159C571.591 122.631 572.487 120.05 574.277 117.417C576.121 114.731 578.675 112.756 581.94 111.492C579.044 110.122 576.858 108.621 575.383 106.989C573.961 105.303 573.25 103.065 573.25 100.274C573.25 97.0084 574.383 94.1118 576.647 91.5838C578.912 89.0031 582.283 87.0018 586.759 85.5798C591.289 84.1578 596.74 83.4468 603.112 83.4468C609.432 83.4468 614.831 84.1578 619.307 85.5798C623.784 87.0018 627.155 89.0031 629.419 91.5838C631.684 94.1118 632.816 97.0084 632.816 100.274C632.816 103.118 632.053 105.356 630.525 106.989C629.051 108.621 626.786 110.122 623.731 111.492ZM603.27 106.831C606.325 106.831 608.853 106.304 610.854 105.251C612.908 104.197 613.935 102.802 613.935 101.064C613.935 99.3258 612.908 97.9564 610.854 96.9558C608.8 95.9024 606.272 95.3758 603.27 95.3758C600.216 95.3758 597.661 95.9024 595.607 96.9558C593.553 97.9564 592.526 99.3258 592.526 101.064C592.526 102.854 593.553 104.276 595.607 105.33C597.661 106.33 600.216 106.831 603.27 106.831ZM603.27 128.951C606.325 128.951 608.853 128.424 610.854 127.371C612.908 126.317 613.935 124.922 613.935 123.184C613.935 121.446 612.908 120.076 610.854 119.076C608.8 118.022 606.272 117.496 603.27 117.496C600.216 117.496 597.661 118.022 595.607 119.076C593.553 120.076 592.526 121.446 592.526 123.184C592.526 124.974 593.553 126.396 595.607 127.45C597.661 128.45 600.216 128.951 603.27 128.951Z"/>
<path d="M684.876 113.388C686.772 113.019 688.641 112.835 690.485 112.835C693.697 112.835 696.304 113.388 698.306 114.494C700.36 115.547 701.834 116.916 702.73 118.602C703.625 120.234 704.073 121.946 704.073 123.737C704.073 127.897 702.703 131.452 699.965 134.402C697.226 137.298 693.513 139.51 688.826 141.038C684.138 142.512 678.924 143.25 673.184 143.25C656.541 143.25 645.771 137.456 640.873 125.87L645.297 124.764C648.562 123.974 651.327 123.236 653.592 122.552C655.909 121.814 657.937 120.998 659.675 120.103C660.728 122.736 662.229 124.632 664.178 125.791C666.179 126.897 668.918 127.45 672.394 127.45C676.08 127.45 679.082 127.028 681.4 126.186C683.717 125.343 684.876 124.079 684.876 122.394C684.876 121.498 684.428 120.814 683.533 120.34C682.637 119.866 681.215 119.55 679.267 119.392C677.318 119.181 674.579 119.076 671.051 119.076H665.047V105.251H668.681C672.683 105.251 675.949 105.093 678.477 104.777C681.005 104.408 682.269 103.644 682.269 102.486C682.269 101.169 681.584 100.116 680.215 99.3258C678.898 98.4831 676.818 98.0618 673.974 98.0618C670.287 98.0618 667.285 98.8254 664.968 100.353C662.703 101.88 660.939 104.092 659.675 106.989C654.039 104.724 648.035 103.118 641.663 102.17C644.191 96.4818 648.062 92.0841 653.276 88.9768C658.542 85.8694 665.31 84.3158 673.579 84.3158C678.951 84.3158 683.77 85.0268 688.036 86.4488C692.354 87.8181 695.725 89.7404 698.148 92.2158C700.623 94.6911 701.861 97.4561 701.861 100.511C701.861 102.301 701.439 103.908 700.597 105.33C699.754 106.699 698.095 108.068 695.62 109.438C693.144 110.754 689.563 112.071 684.876 113.388Z"/>
</mask>
<path d="M77.2582 5.10578L83.4202 62.4598H62.9592L61.6952 21.5378L53.7952 62.4598H33.0972L25.0392 21.8538L23.8542 62.4598H3.39319L9.55519 5.10578H36.4152L43.2882 42.4728L49.2922 5.10578H77.2582Z" stroke="#00E472" stroke-width="6" mask="url(#path-1-outside-1_67_52)"/>
<path d="M141.862 31.4918C144.18 32.3344 146.155 33.5194 147.787 35.0468C149.42 36.5741 150.631 38.2594 151.421 40.1028C152.211 41.8934 152.606 43.5788 152.606 45.1588C152.606 51.3734 149.841 55.9554 144.311 58.9048C138.834 61.8014 131.145 63.2498 121.243 63.2498C111.289 63.2498 103.547 61.8014 98.0173 58.9048C92.4873 55.9554 89.7223 51.3734 89.7223 45.1588C89.7223 42.6308 90.6176 40.0501 92.4083 37.4168C94.2516 34.7308 96.806 32.7558 100.071 31.4918C97.1746 30.1224 94.989 28.6214 93.5143 26.9888C92.0923 25.3034 91.3813 23.0651 91.3813 20.2738C91.3813 17.0084 92.5136 14.1118 94.7783 11.5838C97.043 9.00311 100.414 7.00178 104.89 5.57978C109.42 4.15778 114.871 3.44678 121.243 3.44678C127.563 3.44678 132.962 4.15778 137.438 5.57978C141.915 7.00178 145.286 9.00311 147.55 11.5838C149.815 14.1118 150.947 17.0084 150.947 20.2738C150.947 23.1178 150.184 25.3561 148.656 26.9888C147.182 28.6214 144.917 30.1224 141.862 31.4918ZM121.401 26.8308C124.456 26.8308 126.984 26.3041 128.985 25.2508C131.039 24.1974 132.066 22.8018 132.066 21.0638C132.066 19.3258 131.039 17.9564 128.985 16.9558C126.931 15.9024 124.403 15.3758 121.401 15.3758C118.347 15.3758 115.792 15.9024 113.738 16.9558C111.684 17.9564 110.657 19.3258 110.657 21.0638C110.657 22.8544 111.684 24.2764 113.738 25.3298C115.792 26.3304 118.347 26.8308 121.401 26.8308ZM121.401 48.9508C124.456 48.9508 126.984 48.4241 128.985 47.3708C131.039 46.3174 132.066 44.9218 132.066 43.1838C132.066 41.4458 131.039 40.0764 128.985 39.0758C126.931 38.0224 124.403 37.4958 121.401 37.4958C118.347 37.4958 115.792 38.0224 113.738 39.0758C111.684 40.0764 110.657 41.4458 110.657 43.1838C110.657 44.9744 111.684 46.3964 113.738 47.4498C115.792 48.4504 118.347 48.9508 121.401 48.9508Z" stroke="#00E472" stroke-width="6" mask="url(#path-1-outside-1_67_52)"/>
<path d="M203.006 33.3878C204.902 33.0191 206.772 32.8348 208.615 32.8348C211.828 32.8348 214.435 33.3878 216.436 34.4938C218.49 35.5471 219.965 36.9164 220.86 38.6018C221.756 40.2344 222.203 41.9461 222.203 43.7368C222.203 47.8974 220.834 51.4524 218.095 54.4018C215.357 57.2984 211.644 59.5104 206.956 61.0378C202.269 62.5124 197.055 63.2498 191.314 63.2498C174.672 63.2498 163.901 57.4564 159.003 45.8698L163.427 44.7638C166.693 43.9738 169.458 43.2364 171.722 42.5518C174.04 41.8144 176.067 40.9981 177.805 40.1028C178.859 42.7361 180.36 44.6321 182.308 45.7908C184.31 46.8968 187.048 47.4498 190.524 47.4498C194.211 47.4498 197.213 47.0284 199.53 46.1858C201.848 45.3431 203.006 44.0791 203.006 42.3938C203.006 41.4984 202.559 40.8138 201.663 40.3398C200.768 39.8658 199.346 39.5498 197.397 39.3918C195.449 39.1811 192.71 39.0758 189.181 39.0758H183.177V25.2508H186.811C190.814 25.2508 194.079 25.0928 196.607 24.7768C199.135 24.4081 200.399 23.6444 200.399 22.4858C200.399 21.1691 199.715 20.1158 198.345 19.3258C197.029 18.4831 194.948 18.0618 192.104 18.0618C188.418 18.0618 185.416 18.8254 183.098 20.3528C180.834 21.8801 179.069 24.0921 177.805 26.9888C172.17 24.7241 166.166 23.1178 159.793 22.1698C162.321 16.4818 166.192 12.0841 171.406 8.97678C176.673 5.86944 183.441 4.31578 191.709 4.31578C197.081 4.31578 201.9 5.02678 206.166 6.44878C210.485 7.81811 213.856 9.74044 216.278 12.2158C218.754 14.6911 219.991 17.4561 219.991 20.5108C219.991 22.3014 219.57 23.9078 218.727 25.3298C217.885 26.6991 216.226 28.0684 213.75 29.4378C211.275 30.7544 207.694 32.0711 203.006 33.3878Z" stroke="#00E472" stroke-width="6" mask="url(#path-1-outside-1_67_52)"/>
<path d="M318.193 5.10578L324.355 62.4598H303.894L302.63 21.5378L294.73 62.4598H274.032L265.974 21.8538L264.789 62.4598H244.328L250.49 5.10578H277.35L284.223 42.4728L290.227 5.10578H318.193Z" stroke="#00E472" stroke-width="6" mask="url(#path-1-outside-1_67_52)"/>
<path d="M382.797 31.4918C385.114 32.3344 387.089 33.5194 388.722 35.0468C390.355 36.5741 391.566 38.2594 392.356 40.1028C393.146 41.8934 393.541 43.5788 393.541 45.1588C393.541 51.3734 390.776 55.9554 385.246 58.9048C379.769 61.8014 372.079 63.2498 362.178 63.2498C352.224 63.2498 344.482 61.8014 338.952 58.9048C333.422 55.9554 330.657 51.3734 330.657 45.1588C330.657 42.6308 331.552 40.0501 333.343 37.4168C335.186 34.7308 337.741 32.7558 341.006 31.4918C338.109 30.1224 335.924 28.6214 334.449 26.9888C333.027 25.3034 332.316 23.0651 332.316 20.2738C332.316 17.0084 333.448 14.1118 335.713 11.5838C337.978 9.00311 341.348 7.00178 345.825 5.57978C350.354 4.15778 355.805 3.44678 362.178 3.44678C368.498 3.44678 373.896 4.15778 378.373 5.57978C382.85 7.00178 386.22 9.00311 388.485 11.5838C390.75 14.1118 391.882 17.0084 391.882 20.2738C391.882 23.1178 391.118 25.3561 389.591 26.9888C388.116 28.6214 385.852 30.1224 382.797 31.4918ZM362.336 26.8308C365.391 26.8308 367.919 26.3041 369.92 25.2508C371.974 24.1974 373.001 22.8018 373.001 21.0638C373.001 19.3258 371.974 17.9564 369.92 16.9558C367.866 15.9024 365.338 15.3758 362.336 15.3758C359.281 15.3758 356.727 15.9024 354.673 16.9558C352.619 17.9564 351.592 19.3258 351.592 21.0638C351.592 22.8544 352.619 24.2764 354.673 25.3298C356.727 26.3304 359.281 26.8308 362.336 26.8308ZM362.336 48.9508C365.391 48.9508 367.919 48.4241 369.92 47.3708C371.974 46.3174 373.001 44.9218 373.001 43.1838C373.001 41.4458 371.974 40.0764 369.92 39.0758C367.866 38.0224 365.338 37.4958 362.336 37.4958C359.281 37.4958 356.727 38.0224 354.673 39.0758C352.619 40.0764 351.592 41.4458 351.592 43.1838C351.592 44.9744 352.619 46.3964 354.673 47.4498C356.727 48.4504 359.281 48.9508 362.336 48.9508Z" stroke="#00E472" stroke-width="6" mask="url(#path-1-outside-1_67_52)"/>
<path d="M443.941 33.3878C445.837 33.0191 447.707 32.8348 449.55 32.8348C452.763 32.8348 455.37 33.3878 457.371 34.4938C459.425 35.5471 460.9 36.9164 461.795 38.6018C462.69 40.2344 463.138 41.9461 463.138 43.7368C463.138 47.8974 461.769 51.4524 459.03 54.4018C456.291 57.2984 452.578 59.5104 447.891 61.0378C443.204 62.5124 437.99 63.2498 432.249 63.2498C415.606 63.2498 404.836 57.4564 399.938 45.8698L404.362 44.7638C407.627 43.9738 410.392 43.2364 412.657 42.5518C414.974 41.8144 417.002 40.9981 418.74 40.1028C419.793 42.7361 421.294 44.6321 423.243 45.7908C425.244 46.8968 427.983 47.4498 431.459 47.4498C435.146 47.4498 438.148 47.0284 440.465 46.1858C442.782 45.3431 443.941 44.0791 443.941 42.3938C443.941 41.4984 443.493 40.8138 442.598 40.3398C441.703 39.8658 440.281 39.5498 438.332 39.3918C436.383 39.1811 433.645 39.0758 430.116 39.0758H424.112V25.2508H427.746C431.749 25.2508 435.014 25.0928 437.542 24.7768C440.07 24.4081 441.334 23.6444 441.334 22.4858C441.334 21.1691 440.649 20.1158 439.28 19.3258C437.963 18.4831 435.883 18.0618 433.039 18.0618C429.352 18.0618 426.35 18.8254 424.033 20.3528C421.768 21.8801 420.004 24.0921 418.74 26.9888C413.105 24.7241 407.101 23.1178 400.728 22.1698C403.256 16.4818 407.127 12.0841 412.341 8.97678C417.608 5.86944 424.375 4.31578 432.644 4.31578C438.016 4.31578 442.835 5.02678 447.101 6.44878C451.42 7.81811 454.79 9.74044 457.213 12.2158C459.688 14.6911 460.926 17.4561 460.926 20.5108C460.926 22.3014 460.505 23.9078 459.662 25.3298C458.819 26.6991 457.16 28.0684 454.685 29.4378C452.21 30.7544 448.628 32.0711 443.941 33.3878Z" stroke="#00E472" stroke-width="6" mask="url(#path-1-outside-1_67_52)"/>
<path d="M559.127 5.10578L565.289 62.4598H544.828L543.564 21.5378L535.664 62.4598H514.966L506.908 21.8538L505.723 62.4598H485.262L491.424 5.10578H518.284L525.157 42.4728L531.161 5.10578H559.127Z" stroke="#00E472" stroke-width="6" mask="url(#path-1-outside-1_67_52)"/>
<path d="M623.731 31.4918C626.049 32.3344 628.024 33.5194 629.656 35.0468C631.289 36.5741 632.5 38.2594 633.29 40.1028C634.08 41.8934 634.475 43.5788 634.475 45.1588C634.475 51.3734 631.71 55.9554 626.18 58.9048C620.703 61.8014 613.014 63.2498 603.112 63.2498C593.158 63.2498 585.416 61.8014 579.886 58.9048C574.356 55.9554 571.591 51.3734 571.591 45.1588C571.591 42.6308 572.487 40.0501 574.277 37.4168C576.121 34.7308 578.675 32.7558 581.94 31.4918C579.044 30.1224 576.858 28.6214 575.383 26.9888C573.961 25.3034 573.25 23.0651 573.25 20.2738C573.25 17.0084 574.383 14.1118 576.647 11.5838C578.912 9.00311 582.283 7.00178 586.759 5.57978C591.289 4.15778 596.74 3.44678 603.112 3.44678C609.432 3.44678 614.831 4.15778 619.307 5.57978C623.784 7.00178 627.155 9.00311 629.419 11.5838C631.684 14.1118 632.816 17.0084 632.816 20.2738C632.816 23.1178 632.053 25.3561 630.525 26.9888C629.051 28.6214 626.786 30.1224 623.731 31.4918ZM603.27 26.8308C606.325 26.8308 608.853 26.3041 610.854 25.2508C612.908 24.1974 613.935 22.8018 613.935 21.0638C613.935 19.3258 612.908 17.9564 610.854 16.9558C608.8 15.9024 606.272 15.3758 603.27 15.3758C600.216 15.3758 597.661 15.9024 595.607 16.9558C593.553 17.9564 592.526 19.3258 592.526 21.0638C592.526 22.8544 593.553 24.2764 595.607 25.3298C597.661 26.3304 600.216 26.8308 603.27 26.8308ZM603.27 48.9508C606.325 48.9508 608.853 48.4241 610.854 47.3708C612.908 46.3174 613.935 44.9218 613.935 43.1838C613.935 41.4458 612.908 40.0764 610.854 39.0758C608.8 38.0224 606.272 37.4958 603.27 37.4958C600.216 37.4958 597.661 38.0224 595.607 39.0758C593.553 40.0764 592.526 41.4458 592.526 43.1838C592.526 44.9744 593.553 46.3964 595.607 47.4498C597.661 48.4504 600.216 48.9508 603.27 48.9508Z" stroke="#00E472" stroke-width="6" mask="url(#path-1-outside-1_67_52)"/>
<path d="M684.876 33.3878C686.772 33.0191 688.641 32.8348 690.485 32.8348C693.697 32.8348 696.304 33.3878 698.306 34.4938C700.36 35.5471 701.834 36.9164 702.73 38.6018C703.625 40.2344 704.073 41.9461 704.073 43.7368C704.073 47.8974 702.703 51.4524 699.965 54.4018C697.226 57.2984 693.513 59.5104 688.826 61.0378C684.138 62.5124 678.924 63.2498 673.184 63.2498C656.541 63.2498 645.771 57.4564 640.873 45.8698L645.297 44.7638C648.562 43.9738 651.327 43.2364 653.592 42.5518C655.909 41.8144 657.937 40.9981 659.675 40.1028C660.728 42.7361 662.229 44.6321 664.178 45.7908C666.179 46.8968 668.918 47.4498 672.394 47.4498C676.08 47.4498 679.082 47.0284 681.4 46.1858C683.717 45.3431 684.876 44.0791 684.876 42.3938C684.876 41.4984 684.428 40.8138 683.533 40.3398C682.637 39.8658 681.215 39.5498 679.267 39.3918C677.318 39.1811 674.579 39.0758 671.051 39.0758H665.047V25.2508H668.681C672.683 25.2508 675.949 25.0928 678.477 24.7768C681.005 24.4081 682.269 23.6444 682.269 22.4858C682.269 21.1691 681.584 20.1158 680.215 19.3258C678.898 18.4831 676.818 18.0618 673.974 18.0618C670.287 18.0618 667.285 18.8254 664.968 20.3528C662.703 21.8801 660.939 24.0921 659.675 26.9888C654.039 24.7241 648.035 23.1178 641.663 22.1698C644.191 16.4818 648.062 12.0841 653.276 8.97678C658.542 5.86944 665.31 4.31578 673.579 4.31578C678.951 4.31578 683.77 5.02678 688.036 6.44878C692.354 7.81811 695.725 9.74044 698.148 12.2158C700.623 14.6911 701.861 17.4561 701.861 20.5108C701.861 22.3014 701.439 23.9078 700.597 25.3298C699.754 26.6991 698.095 28.0684 695.62 29.4378C693.144 30.7544 689.563 32.0711 684.876 33.3878Z" stroke="#00E472" stroke-width="6" mask="url(#path-1-outside-1_67_52)"/>
<path d="M77.2582 85.1058L83.4202 142.46H62.9592L61.6952 101.538L53.7952 142.46H33.0972L25.0392 101.854L23.8542 142.46H3.39319L9.55519 85.1058H36.4152L43.2882 122.473L49.2922 85.1058H77.2582Z" stroke="#00E472" stroke-width="6" mask="url(#path-1-outside-1_67_52)"/>
<path d="M141.862 111.492C144.18 112.334 146.155 113.519 147.787 115.047C149.42 116.574 150.631 118.259 151.421 120.103C152.211 121.893 152.606 123.579 152.606 125.159C152.606 131.373 149.841 135.955 144.311 138.905C138.834 141.801 131.145 143.25 121.243 143.25C111.289 143.25 103.547 141.801 98.0173 138.905C92.4873 135.955 89.7223 131.373 89.7223 125.159C89.7223 122.631 90.6176 120.05 92.4083 117.417C94.2516 114.731 96.806 112.756 100.071 111.492C97.1746 110.122 94.989 108.621 93.5143 106.989C92.0923 105.303 91.3813 103.065 91.3813 100.274C91.3813 97.0084 92.5136 94.1118 94.7783 91.5838C97.043 89.0031 100.414 87.0018 104.89 85.5798C109.42 84.1578 114.871 83.4468 121.243 83.4468C127.563 83.4468 132.962 84.1578 137.438 85.5798C141.915 87.0018 145.286 89.0031 147.55 91.5838C149.815 94.1118 150.947 97.0084 150.947 100.274C150.947 103.118 150.184 105.356 148.656 106.989C147.182 108.621 144.917 110.122 141.862 111.492ZM121.401 106.831C124.456 106.831 126.984 106.304 128.985 105.251C131.039 104.197 132.066 102.802 132.066 101.064C132.066 99.3258 131.039 97.9564 128.985 96.9558C126.931 95.9024 124.403 95.3758 121.401 95.3758C118.347 95.3758 115.792 95.9024 113.738 96.9558C111.684 97.9564 110.657 99.3258 110.657 101.064C110.657 102.854 111.684 104.276 113.738 105.33C115.792 106.33 118.347 106.831 121.401 106.831ZM121.401 128.951C124.456 128.951 126.984 128.424 128.985 127.371C131.039 126.317 132.066 124.922 132.066 123.184C132.066 121.446 131.039 120.076 128.985 119.076C126.931 118.022 124.403 117.496 121.401 117.496C118.347 117.496 115.792 118.022 113.738 119.076C111.684 120.076 110.657 121.446 110.657 123.184C110.657 124.974 111.684 126.396 113.738 127.45C115.792 128.45 118.347 128.951 121.401 128.951Z" stroke="#00E472" stroke-width="6" mask="url(#path-1-outside-1_67_52)"/>
<path d="M203.006 113.388C204.902 113.019 206.772 112.835 208.615 112.835C211.828 112.835 214.435 113.388 216.436 114.494C218.49 115.547 219.965 116.916 220.86 118.602C221.756 120.234 222.203 121.946 222.203 123.737C222.203 127.897 220.834 131.452 218.095 134.402C215.357 137.298 211.644 139.51 206.956 141.038C202.269 142.512 197.055 143.25 191.314 143.25C174.672 143.25 163.901 137.456 159.003 125.87L163.427 124.764C166.693 123.974 169.458 123.236 171.722 122.552C174.04 121.814 176.067 120.998 177.805 120.103C178.859 122.736 180.36 124.632 182.308 125.791C184.31 126.897 187.048 127.45 190.524 127.45C194.211 127.45 197.213 127.028 199.53 126.186C201.848 125.343 203.006 124.079 203.006 122.394C203.006 121.498 202.559 120.814 201.663 120.34C200.768 119.866 199.346 119.55 197.397 119.392C195.449 119.181 192.71 119.076 189.181 119.076H183.177V105.251H186.811C190.814 105.251 194.079 105.093 196.607 104.777C199.135 104.408 200.399 103.644 200.399 102.486C200.399 101.169 199.715 100.116 198.345 99.3258C197.029 98.4831 194.948 98.0618 192.104 98.0618C188.418 98.0618 185.416 98.8254 183.098 100.353C180.834 101.88 179.069 104.092 177.805 106.989C172.17 104.724 166.166 103.118 159.793 102.17C162.321 96.4818 166.192 92.0841 171.406 88.9768C176.673 85.8694 183.441 84.3158 191.709 84.3158C197.081 84.3158 201.9 85.0268 206.166 86.4488C210.485 87.8181 213.856 89.7404 216.278 92.2158C218.754 94.6911 219.991 97.4561 219.991 100.511C219.991 102.301 219.57 103.908 218.727 105.33C217.885 106.699 216.226 108.068 213.75 109.438C211.275 110.754 207.694 112.071 203.006 113.388Z" stroke="#00E472" stroke-width="6" mask="url(#path-1-outside-1_67_52)"/>
<path d="M318.193 85.1058L324.355 142.46H303.894L302.63 101.538L294.73 142.46H274.032L265.974 101.854L264.789 142.46H244.328L250.49 85.1058H277.35L284.223 122.473L290.227 85.1058H318.193Z" stroke="#00E472" stroke-width="6" mask="url(#path-1-outside-1_67_52)"/>
<path d="M382.797 111.492C385.114 112.334 387.089 113.519 388.722 115.047C390.355 116.574 391.566 118.259 392.356 120.103C393.146 121.893 393.541 123.579 393.541 125.159C393.541 131.373 390.776 135.955 385.246 138.905C379.769 141.801 372.079 143.25 362.178 143.25C352.224 143.25 344.482 141.801 338.952 138.905C333.422 135.955 330.657 131.373 330.657 125.159C330.657 122.631 331.552 120.05 333.343 117.417C335.186 114.731 337.741 112.756 341.006 111.492C338.109 110.122 335.924 108.621 334.449 106.989C333.027 105.303 332.316 103.065 332.316 100.274C332.316 97.0084 333.448 94.1118 335.713 91.5838C337.978 89.0031 341.348 87.0018 345.825 85.5798C350.354 84.1578 355.805 83.4468 362.178 83.4468C368.498 83.4468 373.896 84.1578 378.373 85.5798C382.85 87.0018 386.22 89.0031 388.485 91.5838C390.75 94.1118 391.882 97.0084 391.882 100.274C391.882 103.118 391.118 105.356 389.591 106.989C388.116 108.621 385.852 110.122 382.797 111.492ZM362.336 106.831C365.391 106.831 367.919 106.304 369.92 105.251C371.974 104.197 373.001 102.802 373.001 101.064C373.001 99.3258 371.974 97.9564 369.92 96.9558C367.866 95.9024 365.338 95.3758 362.336 95.3758C359.281 95.3758 356.727 95.9024 354.673 96.9558C352.619 97.9564 351.592 99.3258 351.592 101.064C351.592 102.854 352.619 104.276 354.673 105.33C356.727 106.33 359.281 106.831 362.336 106.831ZM362.336 128.951C365.391 128.951 367.919 128.424 369.92 127.371C371.974 126.317 373.001 124.922 373.001 123.184C373.001 121.446 371.974 120.076 369.92 119.076C367.866 118.022 365.338 117.496 362.336 117.496C359.281 117.496 356.727 118.022 354.673 119.076C352.619 120.076 351.592 121.446 351.592 123.184C351.592 124.974 352.619 126.396 354.673 127.45C356.727 128.45 359.281 128.951 362.336 128.951Z" stroke="#00E472" stroke-width="6" mask="url(#path-1-outside-1_67_52)"/>
<path d="M443.941 113.388C445.837 113.019 447.707 112.835 449.55 112.835C452.763 112.835 455.37 113.388 457.371 114.494C459.425 115.547 460.9 116.916 461.795 118.602C462.69 120.234 463.138 121.946 463.138 123.737C463.138 127.897 461.769 131.452 459.03 134.402C456.291 137.298 452.578 139.51 447.891 141.038C443.204 142.512 437.99 143.25 432.249 143.25C415.606 143.25 404.836 137.456 399.938 125.87L404.362 124.764C407.627 123.974 410.392 123.236 412.657 122.552C414.974 121.814 417.002 120.998 418.74 120.103C419.793 122.736 421.294 124.632 423.243 125.791C425.244 126.897 427.983 127.45 431.459 127.45C435.146 127.45 438.148 127.028 440.465 126.186C442.782 125.343 443.941 124.079 443.941 122.394C443.941 121.498 443.493 120.814 442.598 120.34C441.703 119.866 440.281 119.55 438.332 119.392C436.383 119.181 433.645 119.076 430.116 119.076H424.112V105.251H427.746C431.749 105.251 435.014 105.093 437.542 104.777C440.07 104.408 441.334 103.644 441.334 102.486C441.334 101.169 440.649 100.116 439.28 99.3258C437.963 98.4831 435.883 98.0618 433.039 98.0618C429.352 98.0618 426.35 98.8254 424.033 100.353C421.768 101.88 420.004 104.092 418.74 106.989C413.105 104.724 407.101 103.118 400.728 102.17C403.256 96.4818 407.127 92.0841 412.341 88.9768C417.608 85.8694 424.375 84.3158 432.644 84.3158C438.016 84.3158 442.835 85.0268 447.101 86.4488C451.42 87.8181 454.79 89.7404 457.213 92.2158C459.688 94.6911 460.926 97.4561 460.926 100.511C460.926 102.301 460.505 103.908 459.662 105.33C458.819 106.699 457.16 108.068 454.685 109.438C452.21 110.754 448.628 112.071 443.941 113.388Z" stroke="#00E472" stroke-width="6" mask="url(#path-1-outside-1_67_52)"/>
<path d="M559.127 85.1058L565.289 142.46H544.828L543.564 101.538L535.664 142.46H514.966L506.908 101.854L505.723 142.46H485.262L491.424 85.1058H518.284L525.157 122.473L531.161 85.1058H559.127Z" stroke="#00E472" stroke-width="6" mask="url(#path-1-outside-1_67_52)"/>
<path d="M623.731 111.492C626.049 112.334 628.024 113.519 629.656 115.047C631.289 116.574 632.5 118.259 633.29 120.103C634.08 121.893 634.475 123.579 634.475 125.159C634.475 131.373 631.71 135.955 626.18 138.905C620.703 141.801 613.014 143.25 603.112 143.25C593.158 143.25 585.416 141.801 579.886 138.905C574.356 135.955 571.591 131.373 571.591 125.159C571.591 122.631 572.487 120.05 574.277 117.417C576.121 114.731 578.675 112.756 581.94 111.492C579.044 110.122 576.858 108.621 575.383 106.989C573.961 105.303 573.25 103.065 573.25 100.274C573.25 97.0084 574.383 94.1118 576.647 91.5838C578.912 89.0031 582.283 87.0018 586.759 85.5798C591.289 84.1578 596.74 83.4468 603.112 83.4468C609.432 83.4468 614.831 84.1578 619.307 85.5798C623.784 87.0018 627.155 89.0031 629.419 91.5838C631.684 94.1118 632.816 97.0084 632.816 100.274C632.816 103.118 632.053 105.356 630.525 106.989C629.051 108.621 626.786 110.122 623.731 111.492ZM603.27 106.831C606.325 106.831 608.853 106.304 610.854 105.251C612.908 104.197 613.935 102.802 613.935 101.064C613.935 99.3258 612.908 97.9564 610.854 96.9558C608.8 95.9024 606.272 95.3758 603.27 95.3758C600.216 95.3758 597.661 95.9024 595.607 96.9558C593.553 97.9564 592.526 99.3258 592.526 101.064C592.526 102.854 593.553 104.276 595.607 105.33C597.661 106.33 600.216 106.831 603.27 106.831ZM603.27 128.951C606.325 128.951 608.853 128.424 610.854 127.371C612.908 126.317 613.935 124.922 613.935 123.184C613.935 121.446 612.908 120.076 610.854 119.076C608.8 118.022 606.272 117.496 603.27 117.496C600.216 117.496 597.661 118.022 595.607 119.076C593.553 120.076 592.526 121.446 592.526 123.184C592.526 124.974 593.553 126.396 595.607 127.45C597.661 128.45 600.216 128.951 603.27 128.951Z" stroke="#00E472" stroke-width="6" mask="url(#path-1-outside-1_67_52)"/>
<path d="M684.876 113.388C686.772 113.019 688.641 112.835 690.485 112.835C693.697 112.835 696.304 113.388 698.306 114.494C700.36 115.547 701.834 116.916 702.73 118.602C703.625 120.234 704.073 121.946 704.073 123.737C704.073 127.897 702.703 131.452 699.965 134.402C697.226 137.298 693.513 139.51 688.826 141.038C684.138 142.512 678.924 143.25 673.184 143.25C656.541 143.25 645.771 137.456 640.873 125.87L645.297 124.764C648.562 123.974 651.327 123.236 653.592 122.552C655.909 121.814 657.937 120.998 659.675 120.103C660.728 122.736 662.229 124.632 664.178 125.791C666.179 126.897 668.918 127.45 672.394 127.45C676.08 127.45 679.082 127.028 681.4 126.186C683.717 125.343 684.876 124.079 684.876 122.394C684.876 121.498 684.428 120.814 683.533 120.34C682.637 119.866 681.215 119.55 679.267 119.392C677.318 119.181 674.579 119.076 671.051 119.076H665.047V105.251H668.681C672.683 105.251 675.949 105.093 678.477 104.777C681.005 104.408 682.269 103.644 682.269 102.486C682.269 101.169 681.584 100.116 680.215 99.3258C678.898 98.4831 676.818 98.0618 673.974 98.0618C670.287 98.0618 667.285 98.8254 664.968 100.353C662.703 101.88 660.939 104.092 659.675 106.989C654.039 104.724 648.035 103.118 641.663 102.17C644.191 96.4818 648.062 92.0841 653.276 88.9768C658.542 85.8694 665.31 84.3158 673.579 84.3158C678.951 84.3158 683.77 85.0268 688.036 86.4488C692.354 87.8181 695.725 89.7404 698.148 92.2158C700.623 94.6911 701.861 97.4561 701.861 100.511C701.861 102.301 701.439 103.908 700.597 105.33C699.754 106.699 698.095 108.068 695.62 109.438C693.144 110.754 689.563 112.071 684.876 113.388Z" stroke="#00E472" stroke-width="6" mask="url(#path-1-outside-1_67_52)"/>
</svg>
