<svg width="702" height="127" viewBox="0 0 702 127" fill="none" xmlns="http://www.w3.org/2000/svg">
<path d="M0.233203 49.8066C1.9332 47.2566 3.3332 44.8816 4.4332 42.6816C5.5832 40.4816 6.6832 37.9316 7.7332 35.0316C11.2832 37.0816 15.4082 38.6816 20.1082 39.8316C24.8082 40.9816 29.1832 41.5566 33.2332 41.5566C37.3832 41.5566 40.3082 41.2066 42.0082 40.5066C43.7082 39.7566 44.5582 38.9566 44.5582 38.1066C44.5582 35.0566 39.9082 33.5316 30.6082 33.5316C20.4082 33.5316 13.0082 32.4816 8.4082 30.3816C3.8082 28.2316 1.5082 24.7816 1.5082 20.0316C1.5082 13.2816 4.3082 8.30664 9.9082 5.10664C15.5082 1.90664 22.7832 0.306641 31.7332 0.306641C36.9332 0.306641 42.2582 0.981641 47.7082 2.33164C53.2082 3.63164 58.1582 5.43164 62.5582 7.73164C61.1082 11.0316 59.5832 15.0566 57.9832 19.8066C57.6832 20.8066 57.4332 21.5566 57.2332 22.0566C54.6832 20.0066 50.8332 18.3066 45.6832 16.9566C40.5332 15.5566 35.9832 14.8566 32.0332 14.8566C27.2832 14.8566 24.0832 15.1816 22.4332 15.8316C20.7832 16.4316 19.9582 17.3316 19.9582 18.5316C19.9582 19.7316 21.0832 20.7066 23.3332 21.4566C25.6332 22.1566 28.9332 22.5066 33.2332 22.5066C43.8332 22.5066 51.5332 23.7316 56.3332 26.1816C61.1332 28.5816 63.5332 32.2816 63.5332 37.2816C63.5332 44.2816 60.9832 49.3316 55.8832 52.4316C50.7832 55.4816 43.0582 57.0066 32.7082 57.0066C27.1582 57.0066 21.5082 56.4066 15.7582 55.2066C10.0082 53.9566 4.8332 52.1566 0.233203 49.8066Z" fill="white"/>
<path d="M113.92 1.73164H132.52V31.5816C132.42 38.9316 129.895 45.0066 124.945 49.8066C120.045 54.6066 111.77 57.0066 100.12 57.0066C88.3203 57.0066 80.2453 54.7316 75.8953 50.1816C71.5453 45.5816 69.4203 39.5566 69.5203 32.1066V1.73164H88.1203V30.9066C88.1203 33.1066 88.2703 34.9066 88.5703 36.3066C88.9203 37.6566 89.9703 38.9316 91.7203 40.1316C93.5203 41.3316 96.3953 41.9316 100.345 41.9316C104.645 41.9316 107.795 41.3316 109.795 40.1316C111.795 38.8816 112.97 37.5066 113.32 36.0066C113.72 34.5066 113.92 32.5816 113.92 30.2316V1.73164Z" fill="white"/>
<path d="M172.564 1.88164C182.514 1.88164 189.439 3.65664 193.339 7.20664C197.239 10.7066 199.189 15.6566 199.189 22.0566C199.189 26.4566 198.414 30.2066 196.864 33.3066C195.314 36.3566 192.589 38.7566 188.689 40.5066C184.789 42.2066 179.414 43.0566 172.564 43.0566H156.964V56.2566H138.514C138.914 46.5566 139.114 37.4816 139.114 29.0316C139.114 20.5816 138.914 11.5066 138.514 1.80664H156.964V1.88164H172.564ZM167.314 28.5816C171.464 28.5816 174.564 28.4316 176.614 28.1316C178.714 27.7816 180.164 27.1816 180.964 26.3316C181.814 25.4816 182.239 24.2316 182.239 22.5816C182.239 20.9316 181.839 19.7066 181.039 18.9066C180.289 18.0566 178.864 17.4816 176.764 17.1816C174.714 16.8816 171.564 16.7316 167.314 16.7316H156.964V28.5816H167.314Z" fill="white"/>
<path d="M222.865 42.5316C241.865 42.4316 255.64 42.1566 264.19 41.7066C263.84 43.7566 263.615 45.8816 263.515 48.0816C263.465 50.2316 263.44 52.9566 263.44 56.2566H205.165C205.565 46.5566 205.765 37.4816 205.765 29.0316C205.765 20.5816 205.565 11.5066 205.165 1.80664H263.44V15.3816H222.865V22.5816C225.265 22.6316 228.815 22.6566 233.515 22.6566C241.465 22.6566 249.69 22.5066 258.19 22.2066V35.1066C249.69 34.8066 241.465 34.6566 233.515 34.6566C228.815 34.6566 225.265 34.6816 222.865 34.7316V42.5316Z" fill="white"/>
<path d="M330.429 19.9566C330.429 24.3066 329.354 27.9816 327.204 30.9816C325.104 33.9816 321.479 36.1566 316.329 37.5066C316.929 38.3066 317.354 38.9316 317.604 39.3816L329.754 56.2566H309.354C307.154 52.1566 303.679 46.3566 298.929 38.8566H287.904V56.2566H270.204C270.604 46.5566 270.804 37.4816 270.804 29.0316C270.804 20.5816 270.604 11.5066 270.204 1.80664H287.904V1.88164H303.279C313.379 1.88164 320.429 3.50664 324.429 6.75664C328.429 10.0066 330.429 14.4066 330.429 19.9566ZM287.904 16.2816V24.8316H298.029C302.279 24.8316 305.479 24.7066 307.629 24.4566C309.829 24.1566 311.354 23.7066 312.204 23.1066C313.054 22.5066 313.479 21.6316 313.479 20.4816C313.479 19.3816 313.079 18.5316 312.279 17.9316C311.479 17.3316 309.979 16.9066 307.779 16.6566C305.579 16.4066 302.329 16.2816 298.029 16.2816H287.904Z" fill="white"/>
<path d="M421.555 1.80664L427.405 56.2566H407.979L406.78 17.4066L399.279 56.2566H379.629L371.979 17.7066L370.854 56.2566H351.43L357.279 1.80664H382.779L389.305 37.2816L395.004 1.80664H421.555Z" fill="white"/>
<path d="M480.712 56.2566C479.762 53.4066 478.488 49.8316 476.888 45.5316H452.962L449.212 56.2566H430.388L451.388 1.80664H478.987L500.138 56.2566H480.712ZM472.612 33.8316C470.712 28.5816 468.763 23.3316 466.763 18.0816L464.962 13.2066C463.212 17.7566 460.637 24.6316 457.237 33.8316H472.612Z" fill="white"/>
<path d="M544.264 28.3566L566.164 56.2566H544.489L533.689 41.5566L522.814 56.2566H501.139L523.039 28.3566L501.889 1.80664H523.564L533.689 15.3066L543.739 1.80664H565.414L544.264 28.3566Z" fill="white"/>
<path d="M613.706 16.7316C607.756 16.4316 603.356 16.2566 600.506 16.2066V41.8566C603.406 41.8066 607.806 41.6316 613.706 41.3316V56.2566H570.131V41.3316C575.881 41.6316 580.256 41.8066 583.256 41.8566V16.2066C580.256 16.2566 575.881 16.4316 570.131 16.7316V1.80664H613.706V16.7316Z" fill="white"/>
<path d="M689.841 1.80664L695.691 56.2566H676.266L675.066 17.4066L667.566 56.2566H647.916L640.266 17.7066L639.141 56.2566H619.716L625.566 1.80664H651.066L657.591 37.2816L663.291 1.80664H689.841Z" fill="white"/>
<path d="M54.6332 88.5266H16.5532V95.8766C18.9332 95.9233 22.5032 95.9466 27.2632 95.9466C35.4765 95.9466 43.8299 95.8066 52.3232 95.5266V109.247C43.8299 108.92 34.8699 108.757 25.4432 108.757C21.5232 108.757 18.5599 108.78 16.5532 108.827V126.257H0.0332031C0.406536 117.203 0.593203 108.733 0.593203 100.847C0.593203 92.96 0.406536 84.49 0.0332031 75.4366H54.6332V88.5266Z" fill="white"/>
<path d="M91.4078 126.957C80.7211 126.957 72.8578 124.647 67.8178 120.027C62.7778 115.36 60.2578 108.827 60.2578 100.427C60.2578 92.12 62.7545 85.6333 67.7478 80.9666C72.7878 76.3 80.6745 73.9666 91.4078 73.9666C102.188 73.9666 110.074 76.3 115.068 80.9666C120.108 85.6333 122.628 92.12 122.628 100.427C122.628 108.873 120.131 115.407 115.138 120.027C110.144 124.647 102.234 126.957 91.4078 126.957ZM91.4078 112.677C96.5878 112.677 100.321 111.697 102.608 109.737C104.894 107.73 106.038 104.627 106.038 100.427C106.038 96.32 104.894 93.2633 102.608 91.2566C100.321 89.25 96.5878 88.2466 91.4078 88.2466C86.2745 88.2466 82.5645 89.25 80.2778 91.2566C77.9911 93.2633 76.8478 96.32 76.8478 100.427C76.8478 104.58 77.9911 107.66 80.2778 109.667C82.5645 111.673 86.2745 112.677 91.4078 112.677Z" fill="white"/>
<path d="M184.417 92.3766C184.417 96.4366 183.414 99.8666 181.407 102.667C179.447 105.467 176.064 107.497 171.257 108.757C171.817 109.503 172.214 110.087 172.447 110.507L183.787 126.257H164.747C162.694 122.43 159.45 117.017 155.017 110.017H144.727V126.257H128.207C128.58 117.203 128.767 108.733 128.767 100.847C128.767 92.96 128.58 84.49 128.207 75.4366H144.727V75.5066H159.077C168.504 75.5066 175.084 77.0233 178.817 80.0566C182.55 83.09 184.417 87.1966 184.417 92.3766ZM144.727 88.9466V96.9266H154.177C158.144 96.9266 161.13 96.81 163.137 96.5766C165.19 96.2966 166.614 95.8766 167.407 95.3166C168.2 94.7566 168.597 93.94 168.597 92.8666C168.597 91.84 168.224 91.0466 167.477 90.4866C166.73 89.9266 165.33 89.53 163.277 89.2966C161.224 89.0633 158.19 88.9466 154.177 88.9466H144.727Z" fill="white"/>
<path d="M204.018 120.237C205.604 117.857 206.911 115.64 207.938 113.587C209.011 111.533 210.038 109.153 211.018 106.447C214.331 108.36 218.181 109.853 222.568 110.927C226.954 112 231.038 112.537 234.818 112.537C238.691 112.537 241.421 112.21 243.008 111.557C244.594 110.857 245.388 110.11 245.388 109.317C245.388 106.47 241.048 105.047 232.368 105.047C222.848 105.047 215.941 104.067 211.648 102.107C207.354 100.1 205.208 96.88 205.208 92.4466C205.208 86.1466 207.821 81.5033 213.048 78.5166C218.274 75.53 225.064 74.0366 233.418 74.0366C238.271 74.0366 243.241 74.6666 248.328 75.9266C253.461 77.14 258.081 78.82 262.188 80.9666C260.834 84.0466 259.411 87.8033 257.918 92.2366C257.638 93.17 257.404 93.87 257.218 94.3366C254.838 92.4233 251.244 90.8366 246.438 89.5766C241.631 88.27 237.384 87.6166 233.698 87.6166C229.264 87.6166 226.278 87.92 224.738 88.5266C223.198 89.0866 222.428 89.9266 222.428 91.0466C222.428 92.1666 223.478 93.0766 225.578 93.7766C227.724 94.43 230.804 94.7566 234.818 94.7566C244.711 94.7566 251.898 95.9 256.378 98.1866C260.858 100.427 263.098 103.88 263.098 108.547C263.098 115.08 260.718 119.793 255.958 122.687C251.198 125.533 243.988 126.957 234.328 126.957C229.148 126.957 223.874 126.397 218.508 125.277C213.141 124.11 208.311 122.43 204.018 120.237Z" fill="white"/>
<path d="M310.126 75.3666H327.486V103.227C327.392 110.087 325.036 115.757 320.416 120.237C315.842 124.717 308.119 126.957 297.246 126.957C286.232 126.957 278.696 124.833 274.636 120.587C270.576 116.293 268.592 110.67 268.686 103.717V75.3666H286.046V102.597C286.046 104.65 286.186 106.33 286.466 107.637C286.792 108.897 287.772 110.087 289.406 111.207C291.086 112.327 293.769 112.887 297.456 112.887C301.469 112.887 304.409 112.327 306.276 111.207C308.142 110.04 309.239 108.757 309.566 107.357C309.939 105.957 310.126 104.16 310.126 101.967V75.3666Z" fill="white"/>
<path d="M364.86 75.5066C374.147 75.5066 380.61 77.1633 384.25 80.4766C387.89 83.7433 389.71 88.3633 389.71 94.3366C389.71 98.4433 388.987 101.943 387.54 104.837C386.093 107.683 383.55 109.923 379.91 111.557C376.27 113.143 371.253 113.937 364.86 113.937H350.3V126.257H333.08C333.453 117.203 333.64 108.733 333.64 100.847C333.64 92.96 333.453 84.49 333.08 75.4366H350.3V75.5066H364.86ZM359.96 100.427C363.833 100.427 366.727 100.287 368.64 100.007C370.6 99.68 371.953 99.12 372.7 98.3266C373.493 97.5333 373.89 96.3666 373.89 94.8266C373.89 93.2866 373.517 92.1433 372.77 91.3966C372.07 90.6033 370.74 90.0666 368.78 89.7866C366.867 89.5066 363.927 89.3666 359.96 89.3666H350.3V100.427H359.96Z" fill="white"/>
<path d="M411.807 113.447C429.54 113.353 442.397 113.097 450.377 112.677C450.05 114.59 449.84 116.573 449.747 118.627C449.7 120.633 449.677 123.177 449.677 126.257H395.287C395.66 117.203 395.847 108.733 395.847 100.847C395.847 92.96 395.66 84.49 395.287 75.4366H449.677V88.1066H411.807V94.8266C414.047 94.8733 417.36 94.8966 421.747 94.8966C429.167 94.8966 436.844 94.7566 444.777 94.4766V106.517C436.844 106.237 429.167 106.097 421.747 106.097C417.36 106.097 414.047 106.12 411.807 106.167V113.447Z" fill="white"/>
<path d="M512.2 92.3766C512.2 96.4366 511.197 99.8666 509.19 102.667C507.23 105.467 503.847 107.497 499.04 108.757C499.6 109.503 499.997 110.087 500.23 110.507L511.57 126.257H492.53C490.477 122.43 487.234 117.017 482.8 110.017H472.51V126.257H455.99C456.364 117.203 456.55 108.733 456.55 100.847C456.55 92.96 456.364 84.49 455.99 75.4366H472.51V75.5066H486.86C496.287 75.5066 502.867 77.0233 506.6 80.0566C510.334 83.09 512.2 87.1966 512.2 92.3766ZM472.51 88.9466V96.9266H481.96C485.927 96.9266 488.914 96.81 490.92 96.5766C492.974 96.2966 494.397 95.8766 495.19 95.3166C495.984 94.7566 496.38 93.94 496.38 92.8666C496.38 91.84 496.007 91.0466 495.26 90.4866C494.514 89.9266 493.114 89.53 491.06 89.2966C489.007 89.0633 485.974 88.9466 481.96 88.9466H472.51Z" fill="white"/>
<path d="M540.187 74.6666C548.96 74.6666 555.89 75.74 560.977 77.8866C566.064 79.9866 569.61 82.9266 571.617 86.7066C573.67 90.44 574.697 95.0366 574.697 100.497C574.697 105.677 573.53 110.203 571.197 114.077C568.864 117.95 565.364 120.96 560.697 123.107C556.03 125.207 550.29 126.257 543.477 126.257C539.324 126.257 535.1 126.257 530.807 126.257C526.514 126.257 522.174 126.233 517.787 126.187C518.16 116.993 518.347 108.43 518.347 100.497C518.347 92.47 518.16 84.0933 517.787 75.3666C523.34 74.9 530.807 74.6666 540.187 74.6666ZM545.437 112.327C549.777 112.327 552.67 111.277 554.117 109.177C555.564 107.077 556.287 104.183 556.287 100.497C556.287 96.95 555.517 94.08 553.977 91.8866C552.484 89.6933 549.637 88.5966 545.437 88.5966C540.91 88.5966 537.527 88.7366 535.287 89.0166V112.327H545.437Z" fill="white"/>
<path d="M620.268 126.257C619.381 123.597 618.191 120.26 616.698 116.247H594.368L590.868 126.257H573.298L592.898 75.4366H618.658L638.398 126.257H620.268ZM612.708 105.327C610.934 100.427 609.114 95.5266 607.248 90.6266L605.568 86.0766C603.934 90.3233 601.531 96.74 598.358 105.327H612.708Z" fill="white"/>
<path d="M669.797 126.957C659.11 126.957 651.246 124.647 646.206 120.027C641.166 115.36 638.646 108.827 638.646 100.427C638.646 92.12 641.143 85.6333 646.136 80.9666C651.176 76.3 659.063 73.9666 669.797 73.9666C680.577 73.9666 688.463 76.3 693.456 80.9666C698.496 85.6333 701.016 92.12 701.016 100.427C701.016 108.873 698.52 115.407 693.526 120.027C688.533 124.647 680.623 126.957 669.797 126.957ZM669.797 112.677C674.977 112.677 678.71 111.697 680.996 109.737C683.283 107.73 684.427 104.627 684.427 100.427C684.427 96.32 683.283 93.2633 680.996 91.2566C678.71 89.25 674.977 88.2466 669.797 88.2466C664.663 88.2466 660.953 89.25 658.667 91.2566C656.38 93.2633 655.237 96.32 655.237 100.427C655.237 104.58 656.38 107.66 658.667 109.667C660.953 111.673 664.663 112.677 669.797 112.677Z" fill="white"/>
</svg>
